<svg width="25" height="22" viewBox="0 0 25 22" fill="none" xmlns="http://www.w3.org/2000/svg">
<path d="M1.53271 9.58105C1.53271 9.58105 12.5896 4.75164 16.4243 3.05109C17.8944 2.37092 22.8795 0.194203 22.8795 0.194203C22.8795 0.194203 25.1804 -0.758029 24.9886 1.55463C24.9247 2.50695 24.4134 5.83991 23.9022 9.44502C23.1352 14.5466 22.3043 20.1242 22.3043 20.1242C22.3043 20.1242 22.1765 21.6888 21.09 21.9608C20.0035 22.2329 18.2139 21.0086 17.8944 20.7364C17.6386 20.5324 13.1009 17.4714 11.4392 15.975C10.9918 15.5669 10.4805 14.7507 11.503 13.7984C13.8039 11.5537 16.5521 8.76485 18.2139 6.99633C18.9809 6.18004 19.7478 4.27548 16.5521 6.58814C12.0144 9.92118 7.5405 13.0501 7.5405 13.0501C7.5405 13.0501 6.51787 13.7303 4.60051 13.1181C2.68307 12.506 0.446123 11.6897 0.446123 11.6897C0.446123 11.6897 -1.08769 10.6694 1.53271 9.58105Z" fill="white"/>
</svg>
