<svg width="31" height="17" viewBox="0 0 31 17" fill="none" xmlns="http://www.w3.org/2000/svg">
<path fill-rule="evenodd" clip-rule="evenodd" d="M30.2887 1.15113C30.5041 0.48758 30.2887 0 29.2631 0H25.8716C25.0093 0 24.6118 0.421197 24.3962 0.885655C24.3962 0.885655 22.6715 4.76737 20.2283 7.28879C19.4379 8.01867 19.0786 8.2509 18.6474 8.2509C18.4318 8.2509 18.1198 8.01867 18.1198 7.35517V1.15113C18.1198 0.354871 17.8695 0 17.1509 0H11.8215C11.2826 0 10.9585 0.369563 10.9585 0.719809C10.9585 1.47465 12.1801 1.64872 12.306 3.77207V8.38366C12.306 9.39474 12.1082 9.57805 11.6771 9.57805C10.5274 9.57805 7.73072 5.67899 6.07204 1.21746C5.74698 0.35029 5.42094 0 4.55419 0H1.16278C0.193805 0 0 0.421197 0 0.885655C0 1.7151 1.14976 5.82905 5.35349 11.27C8.15596 14.9858 12.1044 17 15.6974 17C17.8532 17 18.1198 16.5526 18.1198 15.782V12.9737C18.1198 12.0789 18.3241 11.9004 19.0067 11.9004C19.5097 11.9004 20.372 12.1326 22.3841 13.9242C24.6836 16.0475 25.0627 17 26.3561 17H29.7475C30.7165 17 31.201 16.5526 30.9215 15.6698C30.6157 14.7899 29.5178 13.5132 28.061 11.9999C27.2705 11.1373 26.0849 10.2084 25.7255 9.74384C25.2225 9.14673 25.3663 8.88125 25.7255 8.35047C25.7255 8.35047 29.8575 2.97582 30.2887 1.15113Z" fill="white"/>
</svg>
