<svg width="28" height="19" viewBox="0 0 28 19" fill="none" xmlns="http://www.w3.org/2000/svg">
<path d="M27.4165 2.96659C27.0958 1.80068 26.147 0.880909 24.9399 0.565682C22.7572 1.85529e-07 14 0 14 0C14 0 5.24722 1.85529e-07 3.06013 0.565682C1.85746 0.876591 0.908686 1.79636 0.583519 2.96659C0 5.0825 0 9.5 0 9.5C0 9.5 0 13.9175 0.583519 16.0334C0.904232 17.1993 1.85301 18.1191 3.06013 18.4343C5.24722 19 14 19 14 19C14 19 22.7572 19 24.9399 18.4343C26.1425 18.1234 27.0913 17.2036 27.4165 16.0334C28 13.9175 28 9.5 28 9.5C28 9.5 28 5.0825 27.4165 2.96659Z" fill="white"/>
<path d="M11.2027 13.572L18.4766 9.5L11.2027 5.42795V13.572Z" fill="black"/>
</svg>
