<svg width="14" height="15" viewBox="0 0 14 15" fill="none" xmlns="http://www.w3.org/2000/svg">
<path fill-rule="evenodd" clip-rule="evenodd" d="M9.62031 1.54317C9.65669 1.58671 9.68555 1.63844 9.70524 1.69539C9.72493 1.75234 9.73507 1.81339 9.73507 1.87504C9.73507 1.9367 9.72493 1.99775 9.70524 2.0547C9.68555 2.11165 9.65669 2.16338 9.62031 2.20692L5.20859 7.50004L9.62031 12.7932C9.69366 12.8812 9.73486 13.0006 9.73486 13.125C9.73486 13.2495 9.69366 13.3689 9.62031 13.4569C9.54696 13.5449 9.44748 13.5944 9.34375 13.5944C9.24002 13.5944 9.14053 13.5449 9.06718 13.4569L4.37968 7.83192C4.34331 7.78838 4.31444 7.73665 4.29475 7.6797C4.27506 7.62275 4.26492 7.5617 4.26492 7.50004C4.26492 7.43839 4.27506 7.37734 4.29475 7.32039C4.31444 7.26344 4.34331 7.21171 4.37968 7.16817L9.06718 1.54317C9.10347 1.49952 9.14658 1.46488 9.19403 1.44125C9.24149 1.41762 9.29237 1.40546 9.34375 1.40546C9.39513 1.40546 9.446 1.41762 9.49346 1.44125C9.54092 1.46488 9.58402 1.49952 9.62031 1.54317Z" fill="white"/>
</svg>
