<svg width="13" height="15" viewBox="0 0 13 15" fill="none" xmlns="http://www.w3.org/2000/svg">
<path fill-rule="evenodd" clip-rule="evenodd" d="M3.62969 1.54317C3.59331 1.58671 3.56445 1.63844 3.54476 1.69539C3.52507 1.75234 3.51493 1.81339 3.51493 1.87504C3.51493 1.9367 3.52507 1.99775 3.54476 2.0547C3.56445 2.11165 3.59331 2.16338 3.62969 2.20692L8.04141 7.50004L3.62969 12.7932C3.55634 12.8812 3.51514 13.0006 3.51514 13.125C3.51514 13.2495 3.55634 13.3689 3.62969 13.4569C3.70304 13.5449 3.80252 13.5944 3.90625 13.5944C4.00998 13.5944 4.10947 13.5449 4.18282 13.4569L8.87032 7.83192C8.90669 7.78838 8.93556 7.73665 8.95525 7.6797C8.97494 7.62275 8.98508 7.5617 8.98508 7.50004C8.98508 7.43839 8.97494 7.37734 8.95525 7.32039C8.93556 7.26344 8.90669 7.21171 8.87032 7.16817L4.18282 1.54317C4.14653 1.49952 4.10342 1.46488 4.05597 1.44125C4.00851 1.41762 3.95763 1.40546 3.90625 1.40546C3.85487 1.40546 3.804 1.41762 3.75654 1.44125C3.70908 1.46488 3.66598 1.49952 3.62969 1.54317Z" fill="white"/>
</svg>
