<svg width="19" height="15" viewBox="0 0 19 15" fill="none" xmlns="http://www.w3.org/2000/svg">
<path fill-rule="evenodd" clip-rule="evenodd" d="M8.87031 1.54317C8.90669 1.58671 8.93555 1.63844 8.95524 1.69539C8.97493 1.75234 8.98507 1.81339 8.98507 1.87504C8.98507 1.9367 8.97493 1.99775 8.95524 2.0547C8.93555 2.11165 8.90669 2.16338 8.87031 2.20692L4.45859 7.50004L8.87031 12.7932C8.94366 12.8812 8.98486 13.0006 8.98486 13.125C8.98486 13.2495 8.94366 13.3689 8.87031 13.4569C8.79696 13.5449 8.69748 13.5944 8.59375 13.5944C8.49002 13.5944 8.39053 13.5449 8.31718 13.4569L3.62968 7.83192C3.59331 7.78838 3.56444 7.73665 3.54475 7.6797C3.52506 7.62275 3.51492 7.5617 3.51492 7.50004C3.51492 7.43839 3.52506 7.37734 3.54475 7.32039C3.56444 7.26344 3.59331 7.21171 3.62968 7.16817L8.31718 1.54317C8.35347 1.49952 8.39658 1.46488 8.44403 1.44125C8.49149 1.41762 8.54237 1.40546 8.59375 1.40546C8.64513 1.40546 8.696 1.41762 8.74346 1.44125C8.79092 1.46488 8.83402 1.49952 8.87031 1.54317V1.54317Z" fill="white"/>
<path fill-rule="evenodd" clip-rule="evenodd" d="M15.1203 1.54317C15.1567 1.58671 15.1855 1.63844 15.2052 1.69539C15.2249 1.75234 15.2351 1.81339 15.2351 1.87504C15.2351 1.9367 15.2249 1.99775 15.2052 2.0547C15.1855 2.11165 15.1567 2.16338 15.1203 2.20692L10.7086 7.50004L15.1203 12.7932C15.1937 12.8812 15.2349 13.0006 15.2349 13.125C15.2349 13.2495 15.1937 13.3689 15.1203 13.4569C15.047 13.5449 14.9475 13.5944 14.8437 13.5944C14.74 13.5944 14.6405 13.5449 14.5672 13.4569L9.87968 7.83192C9.84331 7.78838 9.81444 7.73665 9.79475 7.6797C9.77506 7.62275 9.76492 7.5617 9.76492 7.50004C9.76492 7.43839 9.77506 7.37734 9.79475 7.32039C9.81444 7.26344 9.84331 7.21171 9.87968 7.16817L14.5672 1.54317C14.6035 1.49952 14.6466 1.46488 14.694 1.44125C14.7415 1.41762 14.7924 1.40546 14.8437 1.40546C14.8951 1.40546 14.946 1.41762 14.9935 1.44125C15.0409 1.46488 15.084 1.49952 15.1203 1.54317V1.54317Z" fill="white"/>
</svg>
