<svg width="20" height="15" viewBox="0 0 20 15" fill="none" xmlns="http://www.w3.org/2000/svg">
<path fill-rule="evenodd" clip-rule="evenodd" d="M10.3797 1.54317C10.3433 1.58671 10.3145 1.63844 10.2948 1.69539C10.2751 1.75234 10.2649 1.81339 10.2649 1.87504C10.2649 1.9367 10.2751 1.99775 10.2948 2.0547C10.3145 2.11165 10.3433 2.16338 10.3797 2.20692L14.7914 7.50004L10.3797 12.7932C10.3063 12.8812 10.2651 13.0006 10.2651 13.125C10.2651 13.2495 10.3063 13.3689 10.3797 13.4569C10.453 13.5449 10.5525 13.5944 10.6563 13.5944C10.76 13.5944 10.8595 13.5449 10.9328 13.4569L15.6203 7.83192C15.6567 7.78838 15.6856 7.73665 15.7052 7.6797C15.7249 7.62275 15.7351 7.5617 15.7351 7.50004C15.7351 7.43839 15.7249 7.37734 15.7052 7.32039C15.6856 7.26344 15.6567 7.21171 15.6203 7.16817L10.9328 1.54317C10.8965 1.49952 10.8534 1.46488 10.806 1.44125C10.7585 1.41762 10.7076 1.40546 10.6563 1.40546C10.6049 1.40546 10.554 1.41762 10.5065 1.44125C10.4591 1.46488 10.416 1.49952 10.3797 1.54317V1.54317Z" fill="white"/>
<path fill-rule="evenodd" clip-rule="evenodd" d="M4.12969 1.54317C4.09331 1.58671 4.06445 1.63844 4.04476 1.69539C4.02507 1.75234 4.01493 1.81339 4.01493 1.87504C4.01493 1.9367 4.02507 1.99775 4.04476 2.0547C4.06445 2.11165 4.09331 2.16338 4.12969 2.20692L8.54141 7.50004L4.12969 12.7932C4.05634 12.8812 4.01514 13.0006 4.01514 13.125C4.01514 13.2495 4.05634 13.3689 4.12969 13.4569C4.20304 13.5449 4.30252 13.5944 4.40625 13.5944C4.50998 13.5944 4.60947 13.5449 4.68282 13.4569L9.37032 7.83192C9.40669 7.78838 9.43556 7.73665 9.45525 7.6797C9.47494 7.62275 9.48508 7.5617 9.48508 7.50004C9.48508 7.43839 9.47494 7.37734 9.45525 7.32039C9.43556 7.26344 9.40669 7.21171 9.37032 7.16817L4.68282 1.54317C4.64653 1.49952 4.60342 1.46488 4.55597 1.44125C4.50851 1.41762 4.45763 1.40546 4.40625 1.40546C4.35487 1.40546 4.304 1.41762 4.25654 1.44125C4.20908 1.46488 4.16598 1.49952 4.12969 1.54317V1.54317Z" fill="white"/>
</svg>
