<svg width="36" height="32" viewBox="0 0 36 32" fill="none" xmlns="http://www.w3.org/2000/svg">
<path d="M2.2071 13.7122C2.2071 13.7122 18.129 6.80043 23.651 4.36664C25.7679 3.3932 32.9465 0.277938 32.9465 0.277938C32.9465 0.277938 36.2598 -1.08487 35.9837 2.22494C35.8916 3.58789 35.1553 8.35792 34.4191 13.5175C33.3146 20.8187 32.1182 28.8013 32.1182 28.8013C32.1182 28.8013 31.9341 31.0404 30.3696 31.4298C28.805 31.8191 26.228 30.0669 25.7679 29.6774C25.3996 29.3855 18.8653 25.0047 16.4724 22.863C15.8281 22.2789 15.0919 21.1108 16.5644 19.7479C19.8777 16.5353 23.8351 12.544 26.228 10.013C27.3324 8.84471 28.4368 6.11895 23.8351 9.42877C17.3007 14.1989 10.8583 18.677 10.8583 18.677C10.8583 18.677 9.38573 19.6504 6.62474 18.7743C3.86362 17.8983 0.642418 16.73 0.642418 16.73C0.642418 16.73 -1.56627 15.2698 2.2071 13.7122Z" fill="white"/>
</svg>
