<svg width="44" height="25" viewBox="0 0 44 25" fill="none" xmlns="http://www.w3.org/2000/svg">
<path fill-rule="evenodd" clip-rule="evenodd" d="M42.9903 2.56678C43.2962 1.64506 42.9903 0.967773 41.5347 0.967773H36.721C35.4971 0.967773 34.9328 1.55285 34.6268 2.19802C34.6268 2.19802 32.1789 7.59003 28.7112 11.0925C27.5893 12.1064 27.0792 12.4289 26.4673 12.4289C26.1613 12.4289 25.7184 12.1063 25.7184 11.1847V2.56679C25.7184 1.46072 25.3632 0.967773 24.3432 0.967773H16.7789C16.0141 0.967773 15.5541 1.48113 15.5541 1.96765C15.5541 3.01617 17.2879 3.25798 17.4666 6.20749V12.6134C17.4666 14.0178 17.1859 14.2725 16.5739 14.2725C14.9421 14.2725 10.9726 8.85635 8.61837 2.65892C8.157 1.45435 7.69424 0.967773 6.46401 0.967773H1.6504C0.275078 0.967773 0 1.55285 0 2.19802C0 3.35019 1.63192 9.06479 7.5985 16.6228C11.5762 21.7842 17.1805 24.5821 22.2802 24.5821C25.34 24.5821 25.7185 23.9607 25.7185 22.8903V18.9893C25.7185 17.7464 26.0084 17.4984 26.9773 17.4984C27.6912 17.4984 28.9152 17.821 31.771 20.3096C35.0348 23.259 35.5729 24.5821 37.4087 24.5821H42.2223C43.5976 24.5821 44.2853 23.9607 43.8886 22.7344C43.4545 21.5121 41.8962 19.7388 39.8285 17.6366C38.7065 16.4384 37.0237 15.1481 36.5137 14.5028C35.7997 13.6733 36.0037 13.3046 36.5137 12.5673C36.5137 12.5673 42.3784 5.10142 42.9903 2.56678Z" fill="white"/>
</svg>
