<svg width="40" height="28" viewBox="0 0 40 28" fill="none" xmlns="http://www.w3.org/2000/svg">
<path d="M39.1664 4.30157C38.7082 2.611 37.3528 1.27732 35.6284 0.820242C32.5103 2.69017e-07 20 0 20 0C20 0 7.49602 2.69017e-07 4.37162 0.820242C2.65352 1.27106 1.29812 2.60474 0.833598 4.30157C0 7.36965 0 13.7751 0 13.7751C0 13.7751 0 20.1805 0.833598 23.2485C1.29176 24.9391 2.64715 26.2728 4.37162 26.7299C7.49602 27.5501 20 27.5501 20 27.5501C20 27.5501 32.5103 27.5501 35.6284 26.7299C37.3465 26.279 38.7019 24.9454 39.1664 23.2485C40 20.1805 40 13.7751 40 13.7751C40 13.7751 40 7.36965 39.1664 4.30157Z" fill="white"/>
<path d="M16.0038 19.6795L26.3952 13.7751L16.0038 7.87056V19.6795Z" fill="black"/>
</svg>
