<svg width="40" height="40" viewBox="0 0 40 40" fill="none" xmlns="http://www.w3.org/2000/svg">
<g clip-path="url(#clip0_101_933)">
<path fill-rule="evenodd" clip-rule="evenodd" d="M22.455 3.91503C22.2075 3.48394 21.8507 3.12578 21.4205 2.87671C20.9903 2.62765 20.5021 2.49649 20.005 2.49649C19.5079 2.49649 19.0196 2.62765 18.5895 2.87671C18.1593 3.12578 17.8025 3.48394 17.555 3.91503L0.412487 33.0825C-0.730013 35.0275 0.639987 37.5 2.86249 37.5H37.145C39.3675 37.5 40.74 35.025 39.595 33.0825L22.455 3.91503ZM20 12.5C19.684 12.5002 19.3716 12.5666 19.0828 12.6949C18.794 12.8231 18.5353 13.0105 18.3233 13.2448C18.1114 13.4792 17.9509 13.7553 17.8521 14.0554C17.7533 14.3556 17.7186 14.6731 17.75 14.9875L18.625 23.755C18.6544 24.0995 18.812 24.4203 19.0666 24.6541C19.3212 24.8879 19.6543 25.0177 20 25.0177C20.3457 25.0177 20.6788 24.8879 20.9334 24.6541C21.188 24.4203 21.3456 24.0995 21.375 23.755L22.25 14.9875C22.2814 14.6731 22.2466 14.3556 22.1479 14.0554C22.0491 13.7553 21.8886 13.4792 21.6766 13.2448C21.4647 13.0105 21.206 12.8231 20.9172 12.6949C20.6284 12.5666 20.316 12.5002 20 12.5ZM20.005 27.5C19.3419 27.5 18.7061 27.7634 18.2372 28.2323C17.7684 28.7011 17.505 29.337 17.505 30C17.505 30.6631 17.7684 31.299 18.2372 31.7678C18.7061 32.2366 19.3419 32.5 20.005 32.5C20.668 32.5 21.3039 32.2366 21.7728 31.7678C22.2416 31.299 22.505 30.6631 22.505 30C22.505 29.337 22.2416 28.7011 21.7728 28.2323C21.3039 27.7634 20.668 27.5 20.005 27.5Z" fill="white"/>
</g>
<defs>
<clipPath id="clip0_101_933">
<rect width="40" height="40" fill="white"/>
</clipPath>
</defs>
</svg>
