<svg width="20" height="30" viewBox="0 0 20 30" fill="none" xmlns="http://www.w3.org/2000/svg">
<g filter="url(#filter0_d_47_484)">
<path fill-rule="evenodd" clip-rule="evenodd" d="M14.1925 2.46888C14.2507 2.53854 14.2969 2.62131 14.3284 2.71243C14.3599 2.80354 14.3761 2.90122 14.3761 2.99988C14.3761 3.09853 14.3599 3.19621 14.3284 3.28733C14.2969 3.37844 14.2507 3.46121 14.1925 3.53088L7.13375 11.9999L14.1925 20.4689C14.3099 20.6097 14.3758 20.8007 14.3758 20.9999C14.3758 21.199 14.3099 21.39 14.1925 21.5309C14.0751 21.6717 13.916 21.7508 13.75 21.7508C13.584 21.7508 13.4249 21.6717 13.3075 21.5309L5.8075 12.5309C5.7493 12.4612 5.70312 12.3784 5.67161 12.2873C5.6401 12.1962 5.62388 12.0985 5.62388 11.9999C5.62388 11.9012 5.6401 11.8035 5.67161 11.7124C5.70312 11.6213 5.7493 11.5385 5.8075 11.4689L13.3075 2.46888C13.3656 2.39903 13.4345 2.34362 13.5105 2.30581C13.5864 2.268 13.6678 2.24854 13.75 2.24854C13.8322 2.24854 13.9136 2.268 13.9895 2.30581C14.0655 2.34362 14.1344 2.39903 14.1925 2.46888Z" fill="white"/>
</g>
<defs>
<filter id="filter0_d_47_484" x="-4" y="0" width="28" height="32" filterUnits="userSpaceOnUse" color-interpolation-filters="sRGB">
<feFlood flood-opacity="0" result="BackgroundImageFix"/>
<feColorMatrix in="SourceAlpha" type="matrix" values="0 0 0 0 0 0 0 0 0 0 0 0 0 0 0 0 0 0 127 0" result="hardAlpha"/>
<feOffset dy="4"/>
<feGaussianBlur stdDeviation="2"/>
<feComposite in2="hardAlpha" operator="out"/>
<feColorMatrix type="matrix" values="0 0 0 0 0 0 0 0 0 0 0 0 0 0 0 0 0 0 0.25 0"/>
<feBlend mode="normal" in2="BackgroundImageFix" result="effect1_dropShadow_47_484"/>
<feBlend mode="normal" in="SourceGraphic" in2="effect1_dropShadow_47_484" result="shape"/>
</filter>
</defs>
</svg>
