<svg width="20" height="20" viewBox="0 0 20 20" fill="none" xmlns="http://www.w3.org/2000/svg">
<path fill-rule="evenodd" clip-rule="evenodd" d="M18.1625 13.1625C16.5804 13.7763 14.8541 13.9168 13.1936 13.567C11.5331 13.2171 10.0102 12.392 8.81031 11.1921C7.61041 9.99222 6.7853 8.4693 6.43546 6.80883C6.08563 5.14837 6.22616 3.422 6.83995 1.83998C4.93967 2.58054 3.35761 3.96138 2.36692 5.74408C1.37623 7.52679 1.0391 9.59946 1.41374 11.6042C1.78838 13.609 2.85127 15.4201 4.41889 16.7247C5.98651 18.0293 7.96047 18.7457 9.99995 18.75C11.7653 18.7504 13.4895 18.2171 14.9462 17.2199C16.4029 16.2227 17.5241 14.8084 18.1625 13.1625Z" fill="#3D50FF"/>
</svg>
