<svg width="40" height="40" viewBox="0 0 40 40" fill="none" xmlns="http://www.w3.org/2000/svg">
<path fill-rule="evenodd" clip-rule="evenodd" d="M38.385 6.6151C38.5014 6.73121 38.5938 6.86915 38.6568 7.02101C38.7198 7.17288 38.7522 7.33568 38.7522 7.5001C38.7522 7.66452 38.7198 7.82732 38.6568 7.97918C38.5938 8.13105 38.5014 8.26898 38.385 8.3851L20.885 25.8851C20.7689 26.0015 20.6309 26.0939 20.4791 26.1569C20.3272 26.2199 20.1644 26.2523 20 26.2523C19.8356 26.2523 19.6728 26.2199 19.5209 26.1569C19.369 26.0939 19.2311 26.0015 19.115 25.8851L11.615 18.3851C11.4988 18.2689 11.4066 18.1309 11.3437 17.9791C11.2808 17.8272 11.2484 17.6645 11.2484 17.5001C11.2484 17.3357 11.2808 17.173 11.3437 17.0211C11.4066 16.8693 11.4988 16.7313 11.615 16.6151C11.7312 16.4989 11.8692 16.4067 12.021 16.3438C12.1729 16.2809 12.3356 16.2485 12.5 16.2485C12.6644 16.2485 12.8271 16.2809 12.979 16.3438C13.1308 16.4067 13.2688 16.4989 13.385 16.6151L20 23.2326L36.615 6.6151C36.7311 6.49869 36.869 6.40633 37.0209 6.34332C37.1728 6.2803 37.3356 6.24786 37.5 6.24786C37.6644 6.24786 37.8272 6.2803 37.9791 6.34332C38.1309 6.40633 38.2689 6.49869 38.385 6.6151Z" fill="white"/>
<path fill-rule="evenodd" clip-rule="evenodd" d="M20 6.24997C17.2805 6.24997 14.6221 7.0564 12.3609 8.56727C10.0998 10.0781 8.33738 12.2256 7.29668 14.7381C6.25597 17.2506 5.98368 20.0152 6.51423 22.6825C7.04477 25.3497 8.35433 27.7997 10.2773 29.7227C12.2003 31.6457 14.6503 32.9552 17.3175 33.4858C19.9848 34.0163 22.7494 33.744 25.2619 32.7033C27.7744 31.6626 29.9219 29.9002 31.4327 27.6391C32.9436 25.3779 33.75 22.7195 33.75 20C33.75 19.6685 33.8817 19.3505 34.1161 19.1161C34.3506 18.8817 34.6685 18.75 35 18.75C35.3315 18.75 35.6495 18.8817 35.8839 19.1161C36.1183 19.3505 36.25 19.6685 36.25 20C36.2496 23.5771 35.0688 27.0541 32.8909 29.8917C30.713 32.7294 27.6596 34.7691 24.2043 35.6946C20.749 36.6201 17.0849 36.3796 13.7802 35.0104C10.4755 33.6413 7.71494 31.22 5.92659 28.122C4.13824 25.024 3.42207 21.4225 3.88915 17.8761C4.35622 14.3296 5.98044 11.0363 8.50991 8.50703C11.0394 5.97773 14.3327 4.35372 17.8792 3.88687C21.4257 3.42003 25.0272 4.13643 28.125 5.92497C28.2744 6.00312 28.4064 6.11067 28.5132 6.24116C28.6199 6.37166 28.6992 6.52239 28.7461 6.6843C28.7931 6.84621 28.8068 7.01595 28.7865 7.18331C28.7662 7.35066 28.7122 7.51218 28.6278 7.65813C28.5435 7.80409 28.4304 7.93147 28.2956 8.03262C28.1607 8.13376 28.0068 8.20658 27.843 8.24669C27.6793 8.2868 27.5091 8.29337 27.3427 8.26601C27.1764 8.23865 27.0173 8.17792 26.875 8.08747C24.7856 6.8792 22.4137 6.24525 20 6.24997Z" fill="white"/>
</svg>
