<svg width="40" height="40" viewBox="0 0 40 40" fill="none" xmlns="http://www.w3.org/2000/svg">
<g clip-path="url(#clip0_17_107)">
<path fill-rule="evenodd" clip-rule="evenodd" d="M11.25 5C10.9185 5 10.6005 5.1317 10.3661 5.36612C10.1317 5.60054 10 5.91848 10 6.25V33.915L20 27.2475L30 33.915V21.25C30 20.9185 30.1317 20.6005 30.3661 20.3661C30.6005 20.1317 30.9185 20 31.25 20C31.5815 20 31.8995 20.1317 32.1339 20.3661C32.3683 20.6005 32.5 20.9185 32.5 21.25V38.585L20 30.2525L7.5 38.585V6.25C7.5 5.25544 7.89509 4.30161 8.59835 3.59835C9.30161 2.89509 10.2554 2.5 11.25 2.5H21.25C21.5815 2.5 21.8995 2.6317 22.1339 2.86612C22.3683 3.10054 22.5 3.41848 22.5 3.75C22.5 4.08152 22.3683 4.39946 22.1339 4.63388C21.8995 4.8683 21.5815 5 21.25 5H11.25Z" fill="white"/>
<path fill-rule="evenodd" clip-rule="evenodd" d="M39.635 5.36502C39.7514 5.48114 39.8438 5.61907 39.9068 5.77094C39.9698 5.9228 40.0022 6.0856 40.0022 6.25002C40.0022 6.41444 39.9698 6.57724 39.9068 6.72911C39.8438 6.88097 39.7514 7.01891 39.635 7.13502L32.135 14.635C32.0189 14.7514 31.8809 14.8438 31.7291 14.9068C31.5772 14.9698 31.4144 15.0023 31.25 15.0023C31.0856 15.0023 30.9228 14.9698 30.7709 14.9068C30.619 14.8438 30.4811 14.7514 30.365 14.635L26.615 10.885C26.4988 10.7688 26.4066 10.6308 26.3437 10.479C26.2808 10.3271 26.2484 10.1644 26.2484 10C26.2484 9.83566 26.2808 9.67291 26.3437 9.52106C26.4066 9.36921 26.4988 9.23124 26.615 9.11502C26.7312 8.9988 26.8692 8.90661 27.021 8.84371C27.1729 8.78082 27.3356 8.74844 27.5 8.74844C27.6644 8.74844 27.8271 8.78082 27.979 8.84371C28.1308 8.90661 28.2688 8.9988 28.385 9.11502L31.25 11.9825L37.865 5.36502C37.9811 5.24861 38.119 5.15626 38.2709 5.09324C38.4228 5.03022 38.5856 4.99779 38.75 4.99779C38.9144 4.99779 39.0772 5.03022 39.2291 5.09324C39.3809 5.15626 39.5189 5.24861 39.635 5.36502Z" fill="white"/>
</g>
<defs>
<clipPath id="clip0_17_107">
<rect width="40" height="40" fill="white"/>
</clipPath>
</defs>
</svg>
