<svg width="20" height="20" viewBox="0 0 20 20" fill="none" xmlns="http://www.w3.org/2000/svg">
<g clip-path="url(#clip0_101_899)">
<path fill-rule="evenodd" clip-rule="evenodd" d="M6.87491 0.607091C6.87491 0.446081 6.94075 0.291665 7.05796 0.177813C7.17517 0.0639612 7.33415 0 7.49991 0L12.4999 0C12.6657 0 12.8246 0.0639612 12.9418 0.177813C13.0591 0.291665 13.1249 0.446081 13.1249 0.607091C13.1249 0.768102 13.0591 0.922518 12.9418 1.03637C12.8246 1.15022 12.6657 1.21418 12.4999 1.21418H11.2499V2.51336C13.4361 2.82453 15.4202 3.92735 16.8041 5.60049C18.188 7.27362 18.8692 9.39326 18.711 11.534C18.5528 13.6747 17.5669 15.6781 15.9511 17.1421C14.3354 18.606 12.2094 19.4223 9.99991 19.4269C7.785 19.4308 5.651 18.6186 4.02836 17.1542C2.40572 15.6898 1.4152 13.6821 1.25661 11.5362C1.09801 9.39031 1.78314 7.26581 3.1738 5.59129C4.56445 3.91677 6.55714 2.81683 8.74991 2.51336V1.21418H7.49991C7.33415 1.21418 7.17517 1.15022 7.05796 1.03637C6.94075 0.922518 6.87491 0.768102 6.87491 0.607091ZM10.6249 6.07091C10.6249 5.9099 10.5591 5.75548 10.4418 5.64163C10.3246 5.52778 10.1657 5.46382 9.99991 5.46382C9.83415 5.46382 9.67517 5.52778 9.55796 5.64163C9.44075 5.75548 9.37491 5.9099 9.37491 6.07091V10.3205H5.62491C5.45915 10.3205 5.30017 10.3845 5.18296 10.4984C5.06575 10.6122 4.99991 10.7666 4.99991 10.9276C4.99991 11.0886 5.06575 11.2431 5.18296 11.3569C5.30017 11.4708 5.45915 11.5347 5.62491 11.5347H9.99991C10.1657 11.5347 10.3246 11.4708 10.4418 11.3569C10.5591 11.2431 10.6249 11.0886 10.6249 10.9276V6.07091Z" fill="white"/>
</g>
<defs>
<clipPath id="clip0_101_899">
<rect width="20" height="19.4269" fill="white"/>
</clipPath>
</defs>
</svg>
