<svg width="48" height="48" viewBox="0 0 48 48" fill="none" xmlns="http://www.w3.org/2000/svg">
<g clip-path="url(#clip0_52_543)" filter="url(#filter0_d_52_543)">
<path fill-rule="evenodd" clip-rule="evenodd" d="M24 37.5C28.6413 37.5 33.0925 35.6563 36.3744 32.3744C39.6563 29.0925 41.5 24.6413 41.5 20C41.5 15.3587 39.6563 10.9075 36.3744 7.62563C33.0925 4.34374 28.6413 2.5 24 2.5C19.3587 2.5 14.9075 4.34374 11.6256 7.62563C8.34374 10.9075 6.5 15.3587 6.5 20C6.5 24.6413 8.34374 29.0925 11.6256 32.3744C14.9075 35.6563 19.3587 37.5 24 37.5ZM24 40C29.3043 40 34.3914 37.8929 38.1421 34.1421C41.8929 30.3914 44 25.3043 44 20C44 14.6957 41.8929 9.60859 38.1421 5.85786C34.3914 2.10714 29.3043 0 24 0C18.6957 0 13.6086 2.10714 9.85786 5.85786C6.10714 9.60859 4 14.6957 4 20C4 25.3043 6.10714 30.3914 9.85786 34.1421C13.6086 37.8929 18.6957 40 24 40Z" fill="#DDDDDD"/>
<path fill-rule="evenodd" clip-rule="evenodd" d="M33.635 10.3649C33.7514 10.481 33.8438 10.619 33.9068 10.7708C33.9698 10.9227 34.0022 11.0855 34.0022 11.2499C34.0022 11.4143 33.9698 11.5771 33.9068 11.729C33.8438 11.8809 33.7514 12.0188 33.635 12.1349L16.135 29.6349C15.9003 29.8696 15.5819 30.0015 15.25 30.0015C14.9181 30.0015 14.5997 29.8696 14.365 29.6349C14.1303 29.4002 13.9984 29.0819 13.9984 28.7499C13.9984 28.418 14.1303 28.0996 14.365 27.8649L31.865 10.3649C31.9811 10.2485 32.119 10.1561 32.2709 10.0931C32.4228 10.0301 32.5856 9.99768 32.75 9.99768C32.9144 9.99768 33.0772 10.0301 33.2291 10.0931C33.3809 10.1561 33.5189 10.2485 33.635 10.3649Z" fill="#DDDDDD"/>
<path fill-rule="evenodd" clip-rule="evenodd" d="M14.365 10.3649C14.2486 10.481 14.1563 10.619 14.0933 10.7708C14.0302 10.9227 13.9978 11.0855 13.9978 11.2499C13.9978 11.4143 14.0302 11.5771 14.0933 11.729C14.1563 11.8809 14.2486 12.0188 14.365 12.1349L31.865 29.6349C32.0998 29.8696 32.4181 30.0015 32.75 30.0015C33.082 30.0015 33.4003 29.8696 33.635 29.6349C33.8698 29.4002 34.0016 29.0819 34.0016 28.7499C34.0016 28.418 33.8698 28.0996 33.635 27.8649L16.135 10.3649C16.0189 10.2485 15.881 10.1561 15.7291 10.0931C15.5773 10.0301 15.4145 9.99768 15.25 9.99768C15.0856 9.99768 14.9228 10.0301 14.771 10.0931C14.6191 10.1561 14.4812 10.2485 14.365 10.3649Z" fill="#DDDDDD"/>
</g>
<defs>
<filter id="filter0_d_52_543" x="0" y="0" width="48" height="48" filterUnits="userSpaceOnUse" color-interpolation-filters="sRGB">
<feFlood flood-opacity="0" result="BackgroundImageFix"/>
<feColorMatrix in="SourceAlpha" type="matrix" values="0 0 0 0 0 0 0 0 0 0 0 0 0 0 0 0 0 0 127 0" result="hardAlpha"/>
<feOffset dy="4"/>
<feGaussianBlur stdDeviation="2"/>
<feComposite in2="hardAlpha" operator="out"/>
<feColorMatrix type="matrix" values="0 0 0 0 0 0 0 0 0 0 0 0 0 0 0 0 0 0 0.25 0"/>
<feBlend mode="normal" in2="BackgroundImageFix" result="effect1_dropShadow_52_543"/>
<feBlend mode="normal" in="SourceGraphic" in2="effect1_dropShadow_52_543" result="shape"/>
</filter>
<clipPath id="clip0_52_543">
<rect width="40" height="40" fill="white" transform="translate(4)"/>
</clipPath>
</defs>
</svg>
