<svg width="40" height="40" viewBox="0 0 40 40" fill="none" xmlns="http://www.w3.org/2000/svg">
<path d="M10 2.5H22.5V5H10C9.33696 5 8.70107 5.26339 8.23223 5.73223C7.76339 6.20107 7.5 6.83696 7.5 7.5V32.5C7.5 33.163 7.76339 33.7989 8.23223 34.2678C8.70107 34.7366 9.33696 35 10 35H30C30.663 35 31.2989 34.7366 31.7678 34.2678C32.2366 33.7989 32.5 33.163 32.5 32.5V15H35V32.5C35 33.8261 34.4732 35.0979 33.5355 36.0355C32.5979 36.9732 31.3261 37.5 30 37.5H10C8.67392 37.5 7.40215 36.9732 6.46447 36.0355C5.52678 35.0979 5 33.8261 5 32.5V7.5C5 6.17392 5.52678 4.90215 6.46447 3.96447C7.40215 3.02678 8.67392 2.5 10 2.5Z" fill="white"/>
<path d="M22.5 11.25V2.5L35 15H26.25C25.2554 15 24.3016 14.6049 23.5983 13.9017C22.8951 13.1984 22.5 12.2446 22.5 11.25Z" fill="white"/>
<path fill-rule="evenodd" clip-rule="evenodd" d="M14.115 22.865C14.2311 22.7486 14.3691 22.6563 14.5209 22.5933C14.6728 22.5302 14.8356 22.4978 15 22.4978C15.1644 22.4978 15.3272 22.5302 15.4791 22.5933C15.631 22.6563 15.7689 22.7486 15.885 22.865L20 26.9825L24.115 22.865C24.3497 22.6303 24.6681 22.4985 25 22.4985C25.3319 22.4985 25.6503 22.6303 25.885 22.865C26.1197 23.0998 26.2516 23.4181 26.2516 23.75C26.2516 24.082 26.1197 24.4003 25.885 24.635L20.885 29.635C20.7689 29.7514 20.631 29.8438 20.4791 29.9068C20.3272 29.9698 20.1644 30.0023 20 30.0023C19.8356 30.0023 19.6728 29.9698 19.5209 29.9068C19.3691 29.8438 19.2311 29.7514 19.115 29.635L14.115 24.635C13.9986 24.5189 13.9062 24.381 13.8432 24.2291C13.7802 24.0773 13.7478 23.9145 13.7478 23.75C13.7478 23.5856 13.7802 23.4228 13.8432 23.271C13.9062 23.1191 13.9986 22.9812 14.115 22.865Z" fill="white"/>
<path fill-rule="evenodd" clip-rule="evenodd" d="M20 15C20.3315 15 20.6495 15.1317 20.8839 15.3661C21.1183 15.6005 21.25 15.9185 21.25 16.25V26.25C21.25 26.5815 21.1183 26.8995 20.8839 27.1339C20.6495 27.3683 20.3315 27.5 20 27.5C19.6685 27.5 19.3505 27.3683 19.1161 27.1339C18.8817 26.8995 18.75 26.5815 18.75 26.25V16.25C18.75 15.9185 18.8817 15.6005 19.1161 15.3661C19.3505 15.1317 19.6685 15 20 15Z" fill="white"/>
</svg>
