<svg width="220" height="50" viewBox="0 0 220 50" fill="none" xmlns="http://www.w3.org/2000/svg">
<path d="M22.1745 7.23119V16.7812L30.2817 11.7142L34.3696 18.2583L25.6098 23.7375L34.1807 29.0965L30.7283 36.0186L22.1917 30.6939V44.0055H14.4796V30.6939L5.94298 36.0186L2.47338 29.0965L11.0615 23.7375L2.30161 18.2583L6.38956 11.7142L14.4967 16.7812V7.23119H22.1745ZM24.7166 7.23119V12.2123L28.9419 9.56716L31.089 8.22741L32.4287 10.3744L36.5167 16.9186L36.6541 17.1247V0L36.3105 0.326349C32.9268 3.43525 28.9248 5.51357 24.7166 6.54414V7.23119ZM0.13741 16.9186L4.22535 10.3744L5.5651 8.22741L7.71212 9.56716L11.9375 12.2123V7.23119V6.54414C7.74648 5.51357 3.74442 3.43525 0.343525 0.326349L0 0V17.1247L0.13741 16.9186ZM35.7094 20.4225L30.3847 23.7547L35.3143 26.8293C35.9498 24.5792 36.3792 22.2604 36.551 19.9072L35.7094 20.4225ZM11.9375 35.2628L7.71212 37.9079L7.07661 38.303C8.03847 39.5569 9.06905 40.7592 10.2027 41.8928L11.9375 43.6276V35.2628ZM28.9419 37.9079L24.7166 35.2628V43.6276L26.4514 41.8928C27.585 40.7592 28.6156 39.5569 29.5775 38.303L28.9419 37.9079ZM14.8574 46.5304L18.327 50L21.7966 46.5304H14.8574ZM0.103058 19.8901C0.274821 22.2432 0.704226 24.562 1.33975 26.8121L6.26932 23.7375L0.944692 20.4054L0.103058 19.8901Z" fill="url(#paint0_linear_219_867)"/>
<path d="M51.2539 34.4212H48.1793L53.0745 22.7414H55.8056L60.6493 34.4212H57.5232L56.6128 32.1368H52.0955L51.2539 34.4212ZM52.92 29.8695H55.8571L54.4143 25.8674L52.92 29.8695Z" fill="white"/>
<path d="M67.1247 34.4212L65.3899 29.423L63.5349 34.4212H60.6149L63.7925 26.211H67.0217L70.0447 34.4212H67.1247Z" fill="white"/>
<path d="M73.9437 34.4212H71.247V26.211H77.0182V28.2893H73.9437V34.4212Z" fill="white"/>
<path d="M87.1179 30.2818C87.1179 30.9516 86.9976 31.5528 86.7572 32.1025C86.5167 32.6521 86.1903 33.1159 85.7609 33.4937C85.3487 33.8716 84.8678 34.1636 84.3181 34.3697C83.7685 34.5758 83.1845 34.6789 82.549 34.6789C81.9306 34.6789 81.3467 34.5758 80.797 34.3697C80.2474 34.1636 79.7664 33.8716 79.3542 33.4937C78.942 33.1159 78.6156 32.6521 78.3752 32.1025C78.1347 31.5528 78.0145 30.9516 78.0145 30.2818C78.0145 29.6119 78.1347 29.0107 78.3752 28.4611C78.6156 27.9286 78.942 27.4649 79.3542 27.087C79.7664 26.7091 80.2474 26.4343 80.797 26.2282C81.3467 26.0221 81.9306 25.9362 82.549 25.9362C83.1673 25.9362 83.7685 26.0392 84.3181 26.2282C84.8678 26.4343 85.3487 26.7091 85.7609 27.087C86.1732 27.4649 86.5167 27.9115 86.7572 28.4611C86.9976 29.0107 87.1179 29.6119 87.1179 30.2818ZM84.5071 30.2818C84.5071 30.0241 84.4556 29.7665 84.3697 29.5088C84.2838 29.2512 84.1636 29.0279 83.9918 28.839C83.82 28.65 83.6311 28.4954 83.3735 28.3752C83.133 28.255 82.8582 28.1863 82.5318 28.1863C82.2055 28.1863 81.9306 28.255 81.6902 28.3752C81.4497 28.4954 81.2436 28.65 81.089 28.839C80.9344 29.0279 80.8142 29.2512 80.7283 29.5088C80.6424 29.7665 80.6081 30.0241 80.6081 30.2818C80.6081 30.5394 80.6424 30.7971 80.7283 31.0547C80.8142 31.3123 80.9344 31.5356 81.1062 31.7418C81.2779 31.9479 81.4669 32.1025 81.7245 32.2227C81.965 32.3429 82.2398 32.4116 82.5662 32.4116C82.8925 32.4116 83.1673 32.3429 83.4078 32.2227C83.6483 32.1025 83.8544 31.9479 84.0261 31.7418C84.1979 31.5356 84.3181 31.3123 84.404 31.0547C84.4727 30.7971 84.5071 30.5394 84.5071 30.2818Z" fill="white"/>
<path d="M97.9732 30.2818C97.9732 30.8486 97.8873 31.3982 97.7156 31.9307C97.5438 32.4631 97.2862 32.9269 96.9426 33.3219C96.5991 33.717 96.2041 34.0433 95.7059 34.2838C95.225 34.5243 94.6754 34.6445 94.057 34.6445C93.5589 34.6445 93.078 34.5415 92.6142 34.3353C92.1676 34.1292 91.8069 33.8544 91.5665 33.5109H91.5321V38.3718H88.8354V26.1938H91.4119V27.2072H91.4634C91.7211 26.8809 92.0646 26.5889 92.5112 26.3484C92.9577 26.1079 93.473 25.9705 94.0914 25.9705C94.6925 25.9705 95.225 26.0908 95.7059 26.314C96.1869 26.5373 96.5991 26.8637 96.9426 27.2587C97.2862 27.6538 97.5438 28.1175 97.7156 28.6328C97.8701 29.1653 97.9732 29.7149 97.9732 30.2818ZM95.3452 30.2818C95.3452 30.0241 95.3109 29.7665 95.225 29.5088C95.1391 29.2512 95.0189 29.0279 94.8643 28.8389C94.7097 28.65 94.5036 28.4954 94.2631 28.3752C94.0227 28.255 93.7479 28.1863 93.4215 28.1863C93.1123 28.1863 92.8375 28.255 92.597 28.3752C92.3566 28.4954 92.1505 28.65 91.9787 28.8561C91.8069 29.0622 91.6695 29.2855 91.5836 29.526C91.4978 29.7836 91.4462 30.0413 91.4462 30.2989C91.4462 30.5566 91.4978 30.8142 91.5836 31.0719C91.6695 31.3295 91.8069 31.5528 91.9787 31.7417C92.1505 31.9478 92.3566 32.1024 92.597 32.2227C92.8375 32.3429 93.1123 32.4116 93.4215 32.4116C93.7479 32.4116 94.0227 32.3429 94.2631 32.2227C94.5036 32.1024 94.7097 31.9478 94.8643 31.7417C95.0189 31.5356 95.1391 31.3123 95.225 31.0547C95.3109 30.8142 95.3452 30.5394 95.3452 30.2818Z" fill="white"/>
<path d="M105.977 29.6634L102.37 34.4041H99.6737V26.1938H102.37V30.9173L105.977 26.1938H108.674V34.4041H105.977V29.6634Z" fill="white"/>
<path d="M110.065 26.211H117.331V28.3065H115.046V34.4212H112.35V28.3065H110.082V26.211H110.065Z" fill="white"/>
<path d="M121.11 26.211L123.823 29.526L126.503 26.211H128.873V34.4212H126.159V29.9554L124.03 32.8582H123.583L121.436 29.9898V34.4212H118.739V26.211H121.11Z" fill="white"/>
<path d="M50.6871 17.3137V9.24084H51.5115V16.5579H55.6854V9.24084H56.5098V16.5579H57.506V18.8939H56.6816V17.3137H50.6871Z" fill="white"/>
<path d="M63.7238 14.4968C63.7238 14.5483 63.7238 14.5998 63.7238 14.6685C63.7238 14.7372 63.7238 14.7888 63.7066 14.8575H59.2923C59.2923 15.1151 59.361 15.3728 59.4469 15.6132C59.55 15.8537 59.6874 16.0598 59.8591 16.2316C60.0309 16.4033 60.237 16.5407 60.4775 16.6438C60.718 16.7469 60.9756 16.7984 61.2332 16.7984C61.6283 16.7984 61.989 16.7125 62.281 16.5236C62.573 16.3346 62.7963 16.1285 62.9509 15.888L63.5349 16.3518C63.2085 16.7469 62.865 17.0389 62.4871 17.2106C62.1092 17.3824 61.697 17.4683 61.2504 17.4683C60.8554 17.4683 60.4947 17.3995 60.1511 17.2621C59.8076 17.1247 59.5156 16.9186 59.2752 16.6781C59.0347 16.4205 58.8457 16.1285 58.6912 15.785C58.5538 15.4415 58.485 15.0636 58.485 14.6685C58.485 14.2735 58.5538 13.8956 58.6912 13.5521C58.8286 13.2086 59.0175 12.9166 59.258 12.6589C59.4984 12.4013 59.7904 12.2123 60.1168 12.0749C60.4431 11.9375 60.8038 11.8688 61.1817 11.8688C61.5939 11.8688 61.9718 11.9375 62.281 12.0749C62.6073 12.2123 62.865 12.4013 63.0711 12.6417C63.2772 12.8822 63.449 13.157 63.552 13.4834C63.6551 13.7754 63.7238 14.1189 63.7238 14.4968ZM62.9337 14.2391C62.9165 13.741 62.7448 13.3288 62.4528 12.9853C62.1608 12.6589 61.7314 12.4872 61.1645 12.4872C60.9069 12.4872 60.6664 12.5387 60.4431 12.6246C60.2198 12.7276 60.0309 12.8478 59.8591 13.0196C59.6874 13.1914 59.5672 13.3631 59.4641 13.5864C59.361 13.7925 59.3095 14.0158 59.2923 14.2391H62.9337Z" fill="white"/>
<path d="M66.1114 17.3137H65.3384V11.9719H66.1114V14.1189H69.1516V11.9719H69.9245V17.3137H69.1516V14.7888H66.1114V17.3137Z" fill="white"/>
<path d="M71.0237 11.989H75.7129V12.6417H73.7032V17.3308H72.9131V12.6417H71.0237V11.989Z" fill="white"/>
<path d="M77.6194 20.0447H76.8465V11.9719H77.6194V12.8994H77.6538C77.8771 12.5558 78.1691 12.281 78.5298 12.1093C78.8905 11.9375 79.2683 11.8344 79.6462 11.8344C80.0584 11.8344 80.4363 11.9031 80.7798 12.0577C81.1234 12.1951 81.3982 12.4013 81.6387 12.6589C81.8791 12.9165 82.0681 13.2085 82.2055 13.5521C82.3429 13.8956 82.4116 14.2563 82.4116 14.6513C82.4116 15.0464 82.3429 15.4071 82.2055 15.7506C82.0681 16.0941 81.8791 16.3861 81.6387 16.6438C81.3982 16.9014 81.1062 17.0904 80.7798 17.2278C80.4363 17.3652 80.0584 17.4511 79.6462 17.4511C79.2683 17.4511 78.8905 17.3652 78.5298 17.1762C78.1691 17.0045 77.8599 16.7468 77.6538 16.4033H77.6194V20.0447ZM81.6043 14.6513C81.6043 14.3593 81.5528 14.0674 81.4669 13.8097C81.381 13.5521 81.2436 13.3116 81.0718 13.1227C80.9001 12.9337 80.694 12.7791 80.4363 12.6589C80.1787 12.5387 79.9039 12.4871 79.5775 12.4871C79.2855 12.4871 79.0107 12.5387 78.7531 12.6589C78.4954 12.762 78.2893 12.9165 78.1004 13.1227C77.9114 13.3288 77.774 13.5521 77.671 13.8097C77.5679 14.0674 77.5164 14.3593 77.5164 14.6513C77.5164 14.9605 77.5679 15.2353 77.671 15.493C77.774 15.7506 77.9114 15.9739 78.1004 16.1629C78.2893 16.3518 78.4954 16.5064 78.7531 16.6094C79.0107 16.7125 79.2855 16.7812 79.5775 16.7812C79.9039 16.7812 80.1787 16.7297 80.4363 16.6094C80.694 16.5064 80.9001 16.3518 81.0718 16.1457C81.2436 15.9396 81.381 15.7163 81.4669 15.4586C81.5528 15.2182 81.6043 14.9433 81.6043 14.6513Z" fill="white"/>
<path d="M90.7764 13.2086C90.639 13.0024 90.4672 12.8307 90.2096 12.6933C89.9691 12.5559 89.6943 12.4872 89.4023 12.4872C89.0931 12.4872 88.8011 12.5387 88.5606 12.6589C88.303 12.762 88.0969 12.9166 87.9251 13.1227C87.7534 13.3116 87.6159 13.5521 87.5129 13.8097C87.4098 14.0674 87.3755 14.3594 87.3755 14.6514C87.3755 14.9605 87.427 15.2353 87.5129 15.493C87.6159 15.7506 87.7362 15.9739 87.9251 16.1629C88.0969 16.3518 88.3202 16.5064 88.5606 16.6266C88.8183 16.7297 89.0931 16.7984 89.4023 16.7984C89.7458 16.7984 90.0378 16.7297 90.2611 16.6094C90.5016 16.472 90.6905 16.3174 90.8451 16.1113L91.4291 16.5407C91.2058 16.8156 90.9138 17.0389 90.5874 17.2106C90.2611 17.3824 89.866 17.4683 89.4023 17.4683C88.9729 17.4683 88.5778 17.3995 88.2343 17.2621C87.8908 17.1247 87.5816 16.9186 87.3411 16.6781C87.1007 16.4205 86.8945 16.1285 86.7571 15.785C86.6197 15.4415 86.551 15.0636 86.551 14.6685C86.551 14.2735 86.6197 13.8956 86.7571 13.5521C86.8945 13.2086 87.0835 12.9166 87.3411 12.6589C87.5816 12.4013 87.8908 12.2123 88.2343 12.0749C88.5778 11.9375 88.9729 11.8688 89.4023 11.8688C89.763 11.8688 90.1237 11.9547 90.4844 12.1093C90.8451 12.2639 91.1542 12.4871 91.3775 12.7963L90.7764 13.2086Z" fill="white"/>
<path d="M93.3528 17.3137H92.5798V11.9719H97.08V17.3137H96.3071V12.6246H93.3528V17.3137Z" fill="white"/>
<path d="M103.951 14.4968C103.951 14.5483 103.951 14.5998 103.951 14.6685C103.951 14.7372 103.951 14.7888 103.933 14.8575H99.5191C99.5191 15.1151 99.5878 15.3728 99.6737 15.6132C99.7767 15.8537 99.9141 16.0598 100.086 16.2316C100.258 16.4033 100.464 16.5407 100.704 16.6438C100.945 16.7469 101.202 16.7984 101.46 16.7984C101.855 16.7984 102.216 16.7125 102.508 16.5236C102.8 16.3346 103.023 16.1285 103.178 15.888L103.762 16.3518C103.435 16.7469 103.092 17.0389 102.714 17.2106C102.336 17.3824 101.924 17.4683 101.477 17.4683C101.082 17.4683 100.721 17.3995 100.378 17.2621C100.034 17.1247 99.7424 16.9186 99.5019 16.6781C99.2614 16.4205 99.0725 16.1285 98.9179 15.785C98.7805 15.4415 98.7118 15.0636 98.7118 14.6685C98.7118 14.2735 98.7805 13.8956 98.9179 13.5521C99.0553 13.2086 99.2443 12.9166 99.4847 12.6589C99.7252 12.4013 100.017 12.2123 100.344 12.0749C100.67 11.9375 101.031 11.8688 101.408 11.8688C101.821 11.8688 102.199 11.9375 102.508 12.0749C102.834 12.2123 103.092 12.4013 103.298 12.6417C103.504 12.8822 103.676 13.157 103.779 13.4834C103.882 13.7754 103.951 14.1189 103.951 14.4968ZM103.16 14.2391C103.143 13.741 102.971 13.3288 102.679 12.9853C102.388 12.6589 101.958 12.4872 101.391 12.4872C101.134 12.4872 100.893 12.5387 100.67 12.6246C100.447 12.7276 100.258 12.8478 100.086 13.0196C99.9141 13.1914 99.7939 13.3631 99.6908 13.5864C99.5878 13.7925 99.5363 14.0158 99.5191 14.2391H103.16Z" fill="white"/>
<path d="M105.565 17.3137V11.9719H106.338V16.6095H109.207V11.9719H109.979V16.6095H110.873V18.8939H110.1V17.3137H105.565Z" fill="white"/>
<path d="M116.129 12.9681L112.865 17.3137H112.075V11.9719H112.865V16.1629L116.129 11.9891H116.919V17.3309H116.129V12.9681Z" fill="white"/>
<path d="M122.295 13.8612C122.295 13.3975 122.175 13.054 121.934 12.8307C121.694 12.6074 121.333 12.4871 120.869 12.4871C120.543 12.4871 120.251 12.5387 119.976 12.6589C119.701 12.7791 119.478 12.9165 119.289 13.1227L118.86 12.6074C119.083 12.3841 119.375 12.2123 119.736 12.0577C120.096 11.9203 120.508 11.8344 120.955 11.8344C121.247 11.8344 121.522 11.8688 121.762 11.9547C122.02 12.0406 122.226 12.1608 122.415 12.3154C122.604 12.47 122.759 12.6761 122.862 12.9165C122.965 13.157 123.016 13.449 123.016 13.7754V16.1113C123.016 16.3174 123.016 16.5236 123.033 16.7468C123.051 16.9701 123.068 17.1591 123.102 17.3137H122.415C122.398 17.1762 122.381 17.0388 122.364 16.8843C122.346 16.7297 122.346 16.5923 122.346 16.4377H122.329C122.089 16.7984 121.814 17.056 121.505 17.2106C121.196 17.3652 120.835 17.4511 120.388 17.4511C120.182 17.4511 119.976 17.4167 119.753 17.3652C119.529 17.3137 119.34 17.2106 119.152 17.0904C118.963 16.9701 118.825 16.7984 118.705 16.5923C118.585 16.3861 118.533 16.1285 118.533 15.8365C118.533 15.4243 118.636 15.0979 118.842 14.8575C119.048 14.617 119.323 14.4452 119.684 14.325C120.028 14.2048 120.44 14.1361 120.886 14.1017C121.333 14.0674 121.814 14.0502 122.295 14.0502V13.8612ZM122.072 14.6513C121.745 14.6513 121.436 14.6685 121.11 14.6857C120.783 14.72 120.491 14.7716 120.234 14.8403C119.976 14.9262 119.753 15.0292 119.598 15.1838C119.426 15.3384 119.34 15.5445 119.34 15.785C119.34 15.9739 119.375 16.1285 119.444 16.2659C119.512 16.4033 119.615 16.5064 119.736 16.5751C119.856 16.661 119.993 16.7125 120.148 16.7468C120.302 16.7812 120.44 16.7984 120.594 16.7984C120.869 16.7984 121.11 16.7468 121.316 16.661C121.522 16.5579 121.711 16.4377 121.848 16.2659C121.986 16.0941 122.106 15.9224 122.175 15.6991C122.243 15.493 122.295 15.2697 122.295 15.0292V14.6342H122.072V14.6513Z" fill="white"/>
<path d="M128.65 17.3137L126.881 12.9166L125.043 17.3137H124.236L126.572 11.9719H127.259L129.44 17.3137H128.65Z" fill="white"/>
<path d="M131.415 11.989V13.8269H132.738C133.133 13.8269 133.476 13.8784 133.751 13.9643C134.026 14.0502 134.249 14.1704 134.421 14.325C134.593 14.4796 134.713 14.6685 134.799 14.8746C134.868 15.0807 134.919 15.3212 134.919 15.5617C134.919 15.8021 134.868 16.0254 134.782 16.2487C134.696 16.4548 134.559 16.6438 134.37 16.8155C134.198 16.9701 133.975 17.1075 133.717 17.1934C133.459 17.2793 133.15 17.3308 132.807 17.3308H130.66V11.989H131.415ZM131.415 16.6953H132.6C132.807 16.6953 133.013 16.6781 133.202 16.6438C133.391 16.6094 133.545 16.5407 133.683 16.4548C133.82 16.369 133.923 16.2487 133.992 16.1113C134.06 15.9739 134.095 15.785 134.095 15.5617C134.095 15.3384 134.06 15.1494 133.975 15.012C133.906 14.8746 133.786 14.7544 133.648 14.6685C133.511 14.5826 133.356 14.5311 133.167 14.4967C132.978 14.4624 132.789 14.4452 132.566 14.4452H131.415V16.6953Z" fill="white"/>
<path d="M137.238 17.3137H136.465V11.9719H137.238V14.1189H140.278V11.9719H141.051V17.3137H140.278V14.7888H137.238V17.3137Z" fill="white"/>
<path d="M148.351 14.6513C148.351 15.0464 148.282 15.4243 148.145 15.7678C148.008 16.1113 147.801 16.4033 147.561 16.661C147.303 16.9186 147.011 17.1076 146.668 17.245C146.324 17.3824 145.929 17.4511 145.517 17.4511C145.105 17.4511 144.727 17.3824 144.383 17.245C144.04 17.1076 143.731 16.9014 143.49 16.661C143.233 16.4033 143.044 16.1113 142.906 15.7678C142.769 15.4243 142.7 15.0464 142.7 14.6513C142.7 14.2563 142.769 13.8784 142.906 13.5349C143.044 13.1914 143.25 12.8994 143.49 12.6417C143.748 12.3841 144.04 12.1952 144.383 12.0577C144.727 11.9203 145.105 11.8516 145.517 11.8516C145.929 11.8516 146.324 11.9203 146.668 12.0577C147.011 12.1952 147.32 12.4013 147.561 12.6417C147.819 12.8994 148.008 13.1914 148.145 13.5349C148.282 13.8784 148.351 14.2391 148.351 14.6513ZM147.527 14.6513C147.527 14.3594 147.475 14.0674 147.389 13.8097C147.286 13.5521 147.166 13.3116 146.977 13.1227C146.805 12.9337 146.582 12.7791 146.341 12.6589C146.084 12.5387 145.809 12.4871 145.5 12.4871C145.191 12.4871 144.916 12.5387 144.658 12.6589C144.418 12.7791 144.194 12.9337 144.023 13.1227C143.851 13.3116 143.713 13.5521 143.61 13.8097C143.507 14.0674 143.473 14.3594 143.473 14.6513C143.473 14.9433 143.525 15.2353 143.61 15.493C143.713 15.7506 143.834 15.9911 144.023 16.18C144.212 16.369 144.401 16.5236 144.658 16.6438C144.899 16.7469 145.191 16.8156 145.5 16.8156C145.809 16.8156 146.101 16.764 146.341 16.6438C146.599 16.5407 146.805 16.3861 146.977 16.18C147.149 15.9911 147.286 15.7506 147.389 15.493C147.492 15.2182 147.527 14.9433 147.527 14.6513Z" fill="white"/>
<path d="M154.036 12.9681L150.773 17.3137H149.983V11.9719H150.773V16.1629L154.036 11.9891H154.826V17.3309H154.036V12.9681ZM150.704 9.55004C150.773 9.7218 150.842 9.89356 150.945 10.0653C151.048 10.2371 151.151 10.3745 151.305 10.5119C151.443 10.6321 151.615 10.7352 151.803 10.8211C151.992 10.8898 152.216 10.9413 152.456 10.9413C152.714 10.9413 152.937 10.8898 153.143 10.8039C153.332 10.718 153.504 10.5978 153.658 10.4776C153.813 10.3573 153.916 10.2027 154.002 10.031C154.088 9.85921 154.157 9.7218 154.208 9.56721L153.641 9.30957C153.538 9.60157 153.401 9.84203 153.212 10.031C153.04 10.2199 152.783 10.323 152.456 10.323C152.13 10.323 151.889 10.2371 151.7 10.0481C151.511 9.85921 151.374 9.61874 151.271 9.30957L150.704 9.55004Z" fill="white"/>
<path d="M160.426 17.3137H159.653V11.9719H164.153V17.3137H163.38V12.6246H160.426V17.3137Z" fill="white"/>
<path d="M171.453 14.6513C171.453 15.0464 171.384 15.4243 171.247 15.7678C171.11 16.1113 170.903 16.4033 170.663 16.661C170.405 16.9186 170.113 17.1076 169.77 17.245C169.426 17.3824 169.031 17.4511 168.619 17.4511C168.207 17.4511 167.829 17.3824 167.485 17.245C167.142 17.1076 166.833 16.9014 166.592 16.661C166.335 16.4033 166.146 16.1113 166.008 15.7678C165.871 15.4243 165.802 15.0464 165.802 14.6513C165.802 14.2563 165.871 13.8784 166.008 13.5349C166.146 13.1914 166.352 12.8994 166.592 12.6417C166.85 12.3841 167.142 12.1952 167.485 12.0577C167.829 11.9203 168.207 11.8516 168.619 11.8516C169.031 11.8516 169.426 11.9203 169.77 12.0577C170.113 12.1952 170.423 12.4013 170.663 12.6417C170.921 12.8994 171.11 13.1914 171.247 13.5349C171.384 13.8784 171.453 14.2391 171.453 14.6513ZM170.629 14.6513C170.629 14.3594 170.577 14.0674 170.491 13.8097C170.388 13.5521 170.268 13.3116 170.079 13.1227C169.907 12.9337 169.684 12.7791 169.443 12.6589C169.186 12.5387 168.911 12.4871 168.602 12.4871C168.293 12.4871 168.018 12.5387 167.76 12.6589C167.52 12.7791 167.296 12.9337 167.125 13.1227C166.953 13.3116 166.816 13.5521 166.712 13.8097C166.609 14.0674 166.575 14.3594 166.575 14.6513C166.575 14.9433 166.627 15.2353 166.712 15.493C166.816 15.7506 166.936 15.9911 167.125 16.18C167.314 16.369 167.503 16.5236 167.76 16.6438C168.001 16.7469 168.293 16.8156 168.602 16.8156C168.911 16.8156 169.203 16.764 169.443 16.6438C169.701 16.5407 169.907 16.3861 170.079 16.18C170.251 15.9911 170.388 15.7506 170.491 15.493C170.577 15.2182 170.629 14.9433 170.629 14.6513Z" fill="white"/>
<path d="M172.862 18.8939H172.106V16.6438H172.965L174.923 11.989H175.61L177.413 16.6438H178.306V18.8939H177.551V17.3136H172.862V18.8939ZM173.738 16.6438H176.64L175.232 12.9165L173.738 16.6438Z" fill="white"/>
<path d="M180.041 17.3137H179.268V11.9719H182.566V12.6246H180.041V17.3137Z" fill="white"/>
<path d="M189.042 14.6513C189.042 15.0464 188.973 15.4243 188.836 15.7678C188.698 16.1113 188.492 16.4033 188.252 16.661C187.994 16.9186 187.702 17.1076 187.358 17.245C187.015 17.3824 186.62 17.4511 186.208 17.4511C185.795 17.4511 185.417 17.3824 185.074 17.245C184.73 17.1076 184.421 16.9014 184.181 16.661C183.923 16.4033 183.734 16.1113 183.597 15.7678C183.459 15.4243 183.391 15.0464 183.391 14.6513C183.391 14.2563 183.459 13.8784 183.597 13.5349C183.734 13.1914 183.94 12.8994 184.181 12.6417C184.438 12.3841 184.73 12.1952 185.074 12.0577C185.417 11.9203 185.795 11.8516 186.208 11.8516C186.62 11.8516 187.015 11.9203 187.358 12.0577C187.702 12.1952 188.011 12.4013 188.252 12.6417C188.509 12.8994 188.698 13.1914 188.836 13.5349C188.973 13.8784 189.042 14.2391 189.042 14.6513ZM188.217 14.6513C188.217 14.3594 188.166 14.0674 188.08 13.8097C187.977 13.5521 187.856 13.3116 187.668 13.1227C187.496 12.9337 187.272 12.7791 187.032 12.6589C186.774 12.5387 186.5 12.4871 186.19 12.4871C185.881 12.4871 185.606 12.5387 185.349 12.6589C185.108 12.7791 184.885 12.9337 184.713 13.1227C184.541 13.3116 184.404 13.5521 184.301 13.8097C184.198 14.0674 184.164 14.3594 184.164 14.6513C184.164 14.9433 184.215 15.2353 184.301 15.493C184.404 15.7506 184.524 15.9911 184.713 16.18C184.902 16.369 185.091 16.5236 185.349 16.6438C185.589 16.7469 185.881 16.8156 186.19 16.8156C186.5 16.8156 186.792 16.764 187.032 16.6438C187.29 16.5407 187.496 16.3861 187.668 16.18C187.839 15.9911 187.977 15.7506 188.08 15.493C188.166 15.2182 188.217 14.9433 188.217 14.6513Z" fill="white"/>
<path d="M189.78 11.989H194.469V12.6417H192.46V17.3308H191.687V12.6417H189.797V11.989H189.78Z" fill="white"/>
<path d="M200.91 14.6513C200.91 15.0464 200.842 15.4243 200.704 15.7678C200.567 16.1113 200.361 16.4033 200.12 16.661C199.863 16.9186 199.571 17.1076 199.227 17.245C198.884 17.3824 198.489 17.4511 198.076 17.4511C197.664 17.4511 197.286 17.3824 196.943 17.245C196.599 17.1076 196.29 16.9014 196.05 16.661C195.792 16.4033 195.603 16.1113 195.466 15.7678C195.328 15.4243 195.259 15.0464 195.259 14.6513C195.259 14.2563 195.328 13.8784 195.466 13.5349C195.603 13.1914 195.809 12.8994 196.05 12.6417C196.307 12.3841 196.599 12.1952 196.943 12.0577C197.286 11.9203 197.664 11.8516 198.076 11.8516C198.489 11.8516 198.884 11.9203 199.227 12.0577C199.571 12.1952 199.88 12.4013 200.12 12.6417C200.378 12.8994 200.567 13.1914 200.704 13.5349C200.842 13.8784 200.91 14.2391 200.91 14.6513ZM200.086 14.6513C200.086 14.3594 200.034 14.0674 199.948 13.8097C199.845 13.5521 199.725 13.3116 199.536 13.1227C199.365 12.9337 199.141 12.7791 198.901 12.6589C198.643 12.5387 198.368 12.4871 198.059 12.4871C197.75 12.4871 197.475 12.5387 197.217 12.6589C196.977 12.7791 196.754 12.9337 196.582 13.1227C196.41 13.3116 196.273 13.5521 196.17 13.8097C196.067 14.0674 196.032 14.3594 196.032 14.6513C196.032 14.9433 196.084 15.2353 196.17 15.493C196.273 15.7506 196.393 15.9911 196.582 16.18C196.771 16.369 196.96 16.5236 197.217 16.6438C197.458 16.7469 197.75 16.8156 198.059 16.8156C198.368 16.8156 198.66 16.764 198.901 16.6438C199.158 16.5407 199.365 16.3861 199.536 16.18C199.708 15.9911 199.845 15.7506 199.948 15.493C200.034 15.2182 200.086 14.9433 200.086 14.6513Z" fill="white"/>
<path d="M204.964 17.3137H202.525V11.9719H204.827C205.496 11.9719 206.012 12.1093 206.338 12.3669C206.664 12.6246 206.836 12.9681 206.836 13.4147C206.836 13.6208 206.802 13.7754 206.75 13.9128C206.682 14.0502 206.596 14.1533 206.493 14.2392C206.39 14.325 206.252 14.3937 206.115 14.4453C205.977 14.4968 205.823 14.5483 205.651 14.5999C205.84 14.617 206.029 14.6514 206.218 14.7029C206.39 14.7544 206.544 14.8403 206.682 14.9434C206.819 15.0464 206.922 15.1667 206.991 15.3384C207.059 15.493 207.111 15.682 207.111 15.9052C207.111 16.3347 206.939 16.6782 206.578 16.9358C206.201 17.1935 205.668 17.3137 204.964 17.3137ZM204.792 14.3422C205.17 14.3422 205.462 14.2907 205.685 14.1704C205.909 14.0502 206.012 13.8097 206.012 13.4662C206.012 13.2601 205.977 13.1055 205.891 13.0025C205.806 12.8822 205.685 12.7964 205.531 12.7448C205.376 12.6933 205.204 12.6589 204.981 12.6418C204.775 12.6246 204.535 12.6246 204.277 12.6246H203.315V14.3766H204.792V14.3422ZM203.298 16.6954H204.294C204.569 16.6954 204.827 16.6954 205.067 16.6782C205.307 16.661 205.514 16.6266 205.685 16.5751C205.857 16.5236 205.995 16.4205 206.098 16.3003C206.201 16.1801 206.252 16.0083 206.252 15.785C206.252 15.4243 206.115 15.1838 205.84 15.0636C205.565 14.9434 205.204 14.8919 204.758 14.8919H203.315V16.6954H203.298Z" fill="white"/>
<path d="M209.464 14.1704C209.773 14.1704 210.048 14.1876 210.323 14.2391L212.23 11.989H213.088L211.01 14.4109C211.646 14.617 212.126 14.9433 212.487 15.4243C212.831 15.9052 213.106 16.5407 213.312 17.3308H212.453C212.35 16.8671 212.212 16.472 212.041 16.1457C211.869 15.8365 211.68 15.5788 211.422 15.3899C211.182 15.201 210.89 15.0636 210.563 14.9777C210.237 14.8918 209.859 14.8574 209.447 14.8403V17.3308H208.674V11.989H209.447V14.1704H209.464Z" fill="white"/>
<path d="M218.945 12.9681L215.682 17.3137H214.892V11.9719H215.682V16.1629L218.945 11.9891H219.736V17.3309H218.945V12.9681Z" fill="white"/>
<defs>
<linearGradient id="paint0_linear_219_867" x1="39.3564" y1="3.86907" x2="1.52109" y2="30.3616" gradientUnits="userSpaceOnUse">
<stop offset="0.0939733" stop-color="#F41243"/>
<stop offset="1" stop-color="#0018F6"/>
</linearGradient>
</defs>
</svg>
