<svg width="40" height="35" viewBox="0 0 40 35" fill="none" xmlns="http://www.w3.org/2000/svg">
<path d="M2.45233 15.2357C2.45233 15.2357 20.1434 7.55603 26.2789 4.85182C28.631 3.77022 36.6072 0.30882 36.6072 0.30882C36.6072 0.30882 40.2887 -1.20541 39.9818 2.47216C39.8795 3.98654 39.0615 9.28658 38.2434 15.0194C37.0162 23.1319 35.6869 32.0014 35.6869 32.0014C35.6869 32.0014 35.4824 34.4893 33.744 34.922C32.0056 35.3546 29.1422 33.4077 28.631 32.9749C28.2218 32.6505 20.9614 27.783 18.3027 25.4033C17.5868 24.7544 16.7688 23.4564 18.4048 21.9421C22.0863 18.3726 26.4834 13.9378 29.1422 11.1255C30.3694 9.82746 31.5964 6.79884 26.4834 10.4764C19.223 15.7766 12.0648 20.7522 12.0648 20.7522C12.0648 20.7522 10.4286 21.8338 7.36082 20.8603C4.29291 19.887 0.713797 18.5889 0.713797 18.5889C0.713797 18.5889 -1.74031 16.9664 2.45233 15.2357Z" fill="white"/>
</svg>
