<svg width="40" height="22" viewBox="0 0 40 22" fill="none" xmlns="http://www.w3.org/2000/svg">
<path fill-rule="evenodd" clip-rule="evenodd" d="M39.0821 1.45364C39.3602 0.615716 39.0821 0 37.7588 0H33.3828C32.2701 0 31.7571 0.531887 31.4789 1.11841C31.4789 1.11841 29.2536 6.02024 26.1011 9.20429C25.0811 10.126 24.6175 10.4192 24.0611 10.4192C23.783 10.4192 23.3804 10.126 23.3804 9.28812V1.45365C23.3804 0.448131 23.0575 0 22.1301 0H15.2536C14.5582 0 14.1401 0.466684 14.1401 0.908976C14.1401 1.86218 15.7162 2.082 15.8787 4.76338V10.5869C15.8787 11.8637 15.6235 12.0952 15.0672 12.0952C13.5837 12.0952 9.97512 7.17144 7.83488 1.5374C7.41545 0.442346 6.99476 0 5.87638 0H1.50036C0.250071 0 0 0.531887 0 1.11841C0 2.16583 1.48357 7.36092 6.90773 14.2318C10.5238 18.9241 15.6186 21.4676 20.2547 21.4676C23.0363 21.4676 23.3804 20.9027 23.3804 19.9296V16.3832C23.3804 15.2533 23.644 15.0278 24.5248 15.0278C25.1738 15.0278 26.2865 15.3211 28.8827 17.5834C31.8498 20.2647 32.339 21.4676 34.0079 21.4676H38.3839C39.6342 21.4676 40.2594 20.9027 39.8987 19.7878C39.5041 18.6767 38.0875 17.0645 36.2078 15.1535C35.1878 14.0642 33.6579 12.8912 33.1942 12.3045C32.5452 11.5505 32.7307 11.2153 33.1942 10.545C33.1942 10.545 38.5258 3.75786 39.0821 1.45364Z" fill="white"/>
</svg>
