<svg width="20" height="20" viewBox="0 0 20 20" fill="none" xmlns="http://www.w3.org/2000/svg">
<path fill-rule="evenodd" clip-rule="evenodd" d="M20 10C20 14.8325 15.5225 18.75 10 18.75C9.00956 18.7513 8.02323 18.6227 7.06625 18.3675C6.33625 18.7375 4.66 19.4475 1.84 19.91C1.59 19.95 1.4 19.69 1.49875 19.4575C1.94125 18.4125 2.34125 17.02 2.46125 15.75C0.93 14.2125 0 12.2 0 10C0 5.1675 4.4775 1.25 10 1.25C15.5225 1.25 20 5.1675 20 10ZM6.25 10C6.25 10.3315 6.1183 10.6495 5.88388 10.8839C5.64946 11.1183 5.33152 11.25 5 11.25C4.66848 11.25 4.35054 11.1183 4.11612 10.8839C3.8817 10.6495 3.75 10.3315 3.75 10C3.75 9.66848 3.8817 9.35054 4.11612 9.11612C4.35054 8.8817 4.66848 8.75 5 8.75C5.33152 8.75 5.64946 8.8817 5.88388 9.11612C6.1183 9.35054 6.25 9.66848 6.25 10ZM11.25 10C11.25 10.3315 11.1183 10.6495 10.8839 10.8839C10.6495 11.1183 10.3315 11.25 10 11.25C9.66848 11.25 9.35054 11.1183 9.11612 10.8839C8.8817 10.6495 8.75 10.3315 8.75 10C8.75 9.66848 8.8817 9.35054 9.11612 9.11612C9.35054 8.8817 9.66848 8.75 10 8.75C10.3315 8.75 10.6495 8.8817 10.8839 9.11612C11.1183 9.35054 11.25 9.66848 11.25 10ZM15 11.25C15.3315 11.25 15.6495 11.1183 15.8839 10.8839C16.1183 10.6495 16.25 10.3315 16.25 10C16.25 9.66848 16.1183 9.35054 15.8839 9.11612C15.6495 8.8817 15.3315 8.75 15 8.75C14.6685 8.75 14.3505 8.8817 14.1161 9.11612C13.8817 9.35054 13.75 9.66848 13.75 10C13.75 10.3315 13.8817 10.6495 14.1161 10.8839C14.3505 11.1183 14.6685 11.25 15 11.25Z" fill="white"/>
</svg>
