<svg width="20" height="18" viewBox="0 0 20 18" fill="none" xmlns="http://www.w3.org/2000/svg">
<path d="M1.22617 7.61786C1.22617 7.61786 10.0717 3.77801 13.1395 2.42591C14.3155 1.88511 18.3036 0.15441 18.3036 0.15441C18.3036 0.15441 20.1443 -0.602706 19.9909 1.23608C19.9398 1.99327 19.5307 4.64329 19.1217 7.5097C18.5081 11.5659 17.8434 16.0007 17.8434 16.0007C17.8434 16.0007 17.7412 17.2447 16.872 17.461C16.0028 17.6773 14.5711 16.7039 14.3155 16.4875C14.1109 16.3253 10.4807 13.8915 9.15133 12.7017C8.7934 12.3772 8.38439 11.7282 9.20242 10.971C11.0431 9.18629 13.2417 6.96891 14.5711 5.56276C15.1847 4.91373 15.7982 3.39942 13.2417 5.23821C9.61151 7.8883 6.0324 10.3761 6.0324 10.3761C6.0324 10.3761 5.21429 10.9169 3.68041 10.4302C2.14645 9.94348 0.356899 9.29445 0.356899 9.29445C0.356899 9.29445 -0.870153 8.48321 1.22617 7.61786Z" fill="white"/>
</svg>
