<svg width="20" height="11" viewBox="0 0 20 11" fill="none" xmlns="http://www.w3.org/2000/svg">
<path fill-rule="evenodd" clip-rule="evenodd" d="M19.5411 0.726822C19.6801 0.307858 19.5411 0 18.8794 0H16.6914C16.135 0 15.8786 0.265944 15.7395 0.559203C15.7395 0.559203 14.6268 3.01012 13.0505 4.60215C12.5406 5.06299 12.3087 5.20962 12.0306 5.20962C11.8915 5.20962 11.6902 5.06299 11.6902 4.64406V0.726824C11.6902 0.224066 11.5287 0 11.0651 0H7.62678C7.27911 0 7.07003 0.233342 7.07003 0.454488C7.07003 0.931092 7.85811 1.041 7.93935 2.38169V5.29345C7.93935 5.93184 7.81177 6.04758 7.5336 6.04758C6.79186 6.04758 4.98756 3.58572 3.91744 0.768702C3.70773 0.221173 3.49738 0 2.93819 0H0.750181C0.125035 0 0 0.265944 0 0.559203C0 1.08292 0.741783 3.68046 3.45387 7.1159C5.26191 9.46203 7.80932 10.7338 10.1274 10.7338C11.5182 10.7338 11.6902 10.4513 11.6902 9.96478V8.19159C11.6902 7.62665 11.822 7.51391 12.2624 7.51391C12.5869 7.51391 13.1433 7.66053 14.4414 8.79172C15.9249 10.1324 16.1695 10.7338 17.004 10.7338H19.192C19.8171 10.7338 20.1297 10.4513 19.9494 9.8939C19.752 9.33833 19.0437 8.53227 18.1039 7.57674C17.5939 7.03211 16.8289 6.44559 16.5971 6.15226C16.2726 5.77525 16.3653 5.60763 16.5971 5.27249C16.5971 5.27249 19.2629 1.87893 19.5411 0.726822Z" fill="white"/>
</svg>
