<svg width="20" height="20" viewBox="0 0 20 20" fill="none" xmlns="http://www.w3.org/2000/svg">
<path fill-rule="evenodd" clip-rule="evenodd" d="M18.1625 13.1625C16.5805 13.7763 14.8541 13.9168 13.1937 13.567C11.5332 13.2171 10.0103 12.392 8.81038 11.1921C7.61047 9.99222 6.78536 8.4693 6.43552 6.80883C6.08569 5.14837 6.22622 3.422 6.84001 1.83998C4.93973 2.58054 3.35767 3.96138 2.36698 5.74408C1.37629 7.52679 1.03917 9.59946 1.4138 11.6042C1.78844 13.609 2.85133 15.4201 4.41895 16.7247C5.98657 18.0293 7.96053 18.7457 10 18.75C11.7653 18.7504 13.4896 18.2171 14.9463 17.2199C16.403 16.2227 17.5242 14.8084 18.1625 13.1625Z" fill="#F41243"/>
</svg>
